<?xml version="1.0" encoding="utf-8"?>
<!-- Generator: Adobe Illustrator 22.0.1, SVG Export Plug-In . SVG Version: 6.00 Build 0)  -->
<svg version="1.1" id="Laag_1" xmlns="http://www.w3.org/2000/svg" xmlns:xlink="http://www.w3.org/1999/xlink" x="0px" y="0px"
	 viewBox="0 0 95.3 156.9" style="enable-background:new 0 0 95.3 156.9;" xml:space="preserve">
<style type="text/css">
	.st0{fill:#54529F;stroke:#54529F;stroke-miterlimit:10;}
	.st1{fill:#7479B9;stroke:#54529F;stroke-miterlimit:10;}
	.st2{fill:#911863;}
	.st3{fill:#EFAFD0;stroke:#C9539A;stroke-miterlimit:10;}
	.st4{fill:#C9539A;}
	.st5{fill:#2D4C9C;}
	.st6{fill:#B1D8EF;stroke:#5EA5DB;stroke-miterlimit:10;}
	.st7{fill:#5EA5DB;stroke:#5EA5DB;stroke-miterlimit:10;}
	.st8{fill:#FFFFFF;}
	.st9{fill:#FFEE00;}
	.st10{fill:#E6007E;}
	.st11{fill:#F8E4BF;}
	.st12{fill:none;stroke:#F8E4BF;stroke-width:2;stroke-miterlimit:10;}
	.st13{fill:#F8E4BF;stroke:#F8E4BF;stroke-miterlimit:10;}
	.st14{fill:none;stroke:#5EA5DB;stroke-miterlimit:10;}
	.st15{fill:#5EA5DB;}
	.st16{fill:none;stroke:#5EA5DB;stroke-width:2;stroke-miterlimit:10;}
	.st17{fill:none;stroke:#C9539A;stroke-miterlimit:10;}
	.st18{fill:#EED0B2;stroke:#F0811E;stroke-miterlimit:10;}
	.st19{fill:#F0811E;}
	.st20{fill:none;stroke:#F0811E;stroke-miterlimit:10;}
	.st21{fill:#F0811E;stroke:#F0811E;stroke-miterlimit:10;}
	.st22{fill:none;stroke:#54529F;stroke-miterlimit:10;}
</style>
<path class="st0" d="M43.1,281.7c0,0-16.7-2.6-23.3,0c-8.4,3.3-16.2,12.3-19.3,25.3c-2.1,8.8,1.7,21.2-5.7,28.1
	c-9,8.5-15.7,0.5-19.8,10.2c-2.4,5.7-3.6,15.1,1.2,21.2c6.1,7.8,17.7,4.3,20.3,10.7c2.1,5.2-4.8,8.9-3.6,15c1.8,9,20.2,16.9,36,14.1
	c13.4-2.4,16.3-10.8,29.1-10.2c7.9,0.3,8.1,3.6,17.6,5c15,2.2,31.5-3.2,32.6-10c0.7-4.4-5.5-6.5-4.5-10.7c1.5-6.9,19-4,24.1-13.6
	c3.6-6.8-1.3-15.5-1.9-16.4c-4.3-7.4-10.5-7-16.9-11.9c-14.6-11.1-3.7-29.3-18.3-46.9c-0.7-0.9-13.3-15.6-28.8-14.8
	C54.9,277.1,43.1,281.7,43.1,281.7z"/>
<path class="st1" d="M30.3,386.7L24,406.5c6.4,12.5,38.1,12.2,45.4,2.3c0,0-2.4-14.9-3.8-17.6L30.3,386.7z"/>
<path class="st0" d="M30.7,388.1l-4.1,10.3c6.8,5.8,33.2,6.2,35-6.3c0,0,1.3,1.8,0,0L30.7,388.1z"/>
<path class="st1" d="M17.4,333.4c-0.6,8.6-13,5.4-11.2,2.2l2,5.8c-0.8-5.7-3.2-8.4-7.1-7.8c-3.6,0.5-0.7,19.1,2.8,22.3
	c1.7,1.5,4,1.8,5.4,2.1l1.1-4.4c0,0,0.4,5.8,0.5,15.2c1.8,10,16.9,26,26.5,28.4c1.5,0.4,14.1,0.8,16.4,0
	c9.2-2.9,25.1-19.2,27.3-28.6c2.6-11.5,0.1-12.7,0.3-15.9v5.9c0.8-0.2,5,0.2,6-1.1c7-8.3,8.4-20.8,3.8-23.2c-1-0.5-1.8-0.6-2.6-0.5
	c-3.7,0.8-4.6,8.4-4.8,8.4c-0.1,0,0.2-2.1,1.5-8.7c0.3-1.6-6.1-3-5.6-5.1"/>
<path class="st1" d="M96.7,335.8c-3.2,0.4-8,0.4-12.4-2.1c-12.9-7.4-6.7-27.9-21.4-39.1c-1.3-1-9.1-6.9-15.7-4.5
	c-5.4,2-11,8.8-11,8.8s-7.1-5.3-12.6-5c-5.6,0.3-11.8,7.1-11.7,13.3c0.1,6.8,7.7,7.8,8.8,16c0.8,5.7-1.9,13.3-7.6,15.5
	c-3.3,1.3-6.6,0.4-8.3-0.2"/>
<circle class="st2" cx="-262.9" cy="265.5" r="76"/>
<path class="st3" d="M25.6,131.2l-6.3,17.4c6.5,11,38.3,10.7,45.6,2c0,0-2.4-13.1-3.9-15.4L25.6,131.2z"/>
<path class="st4" d="M25.8,129.9l-4.6,13.4c7.7,7.5,37.7,8.1,39.6-8.2c0,0,1.4,2.4,0,0L25.8,129.9z"/>
<circle class="st5" cx="-262.1" cy="76.2" r="76"/>
<path class="st6" d="M-115.1,126.1l-7.5,17.8c7.7,11.3,45.8,11,54.6,2c0,0-2.9-13.4-4.6-15.8L-115.1,126.1z"/>
<path class="st7" d="M-114.8,124.8l-5.5,13.8c9.2,7.7,45.1,8.3,47.5-8.5c0,0,1.7,2.4,0,0L-114.8,124.8z"/>
<rect x="969.4" y="-2407.3" width="297.4" height="70.8"/>
<rect x="973.6" y="-2400.6" style="fill:none;" width="293.2" height="68.2"/>
<text transform="matrix(1 0 0 1 973.5711 -2392.4673)"><tspan x="0" y="0" class="st8" style="font-family:'Inconsolata-Regular'; font-size:12px;">Hoe kan </tspan><tspan x="48" y="0" class="st9" style="font-family:'Inconsolata-Bold'; font-size:12px;">Marie</tspan><tspan x="78" y="0" class="st8" style="font-family:'Inconsolata-Bold'; font-size:12px;"> </tspan><tspan x="84" y="0" class="st8" style="font-family:'Inconsolata-Regular'; font-size:12px;">een </tspan><tspan x="108" y="0" class="st10" style="font-family:'Inconsolata-Regular'; font-size:12px;">podcast</tspan><tspan x="150" y="0" class="st8" style="font-family:'Inconsolata-Regular'; font-size:12px;"> consumeren, zonder dat </tspan><tspan x="0" y="14.4" class="st8" style="font-family:'Inconsolata-Regular'; font-size:12px;">nuances, de toon of details verloren gaan en ze </tspan><tspan x="0" y="28.8" class="st8" style="font-family:'Inconsolata-Regular'; font-size:12px;">een volledige ervaring heeft zoals horenden die </tspan><tspan x="0" y="43.2" class="st8" style="font-family:'Inconsolata-Regular'; font-size:12px;">ook zouden hebben?</tspan></text>
<rect x="992.1" y="-2266.6" style="fill:none;" width="142.4" height="190.4"/>
<text transform="matrix(1 0 0 1 1042.4812 -2258.6108)"><tspan x="0" y="0" style="font-family:'Cabazon'; font-size:12px;">No money</tspan><tspan x="4.6" y="14.4" style="font-family:'Cabazon'; font-size:12px;">can buy</tspan><tspan x="-1.4" y="28.8" style="font-family:'Cabazon'; font-size:12px;">good name</tspan></text>
<rect x="-290.5" y="-1327.8" class="st11" width="786.9" height="967.6"/>
<image style="overflow:visible;" width="563" height="751" xlink:href="23ffc8d0e52b5d2bf918bf7ab629466a.jpg"  transform="matrix(0.5752 0 0 0.5752 -871.6323 -2482.5854)">
</image>
<g id="EHB1Qf.tif">
	
		<image style="overflow:visible;" width="660" height="454" id="Layer_0_2_" xlink:href="F7907101754CED0C.png"  transform="matrix(0.7578 0 0 0.76 692.4893 -1429.3071)">
	</image>
</g>
<g id="ByeXto.tif">
	
		<image style="overflow:visible;" width="549" height="400" id="Layer_0_1_" xlink:href="F7907101754CED0D.png"  transform="matrix(1 0 0 1 668.0672 -1456.7839)">
	</image>
</g>
<g id="hhC3BW.tif">
	
		<image style="overflow:visible;" width="564" height="564" id="Layer_0_3_" xlink:href="F7907101754CED04.png"  transform="matrix(1 0 0 1 1326.3489 -1301.1112)">
	</image>
</g>
<g id="tC4L8X.tif">
	
		<image style="overflow:visible;" width="563" height="554" id="Layer_0_4_" xlink:href="F7907101754CED05.png"  transform="matrix(1 0 0 1 654.0672 -998.746)">
	</image>
</g>
<image style="overflow:visible;" width="563" height="751" xlink:href="23ffc8d0e52b5d2bf918bf7ab629466a.jpg"  transform="matrix(0.5752 0 0 0.5752 -223.9712 -2482.5854)">
</image>
<image style="overflow:visible;" width="563" height="751" xlink:href="23ffc8d0e52b5d2bf918bf7ab629466a.jpg"  transform="matrix(0.5752 0 0 0.5752 422.5859 -2482.5854)">
</image>
<image style="overflow:visible;" width="563" height="751" xlink:href="23ffc8d0e52b5d2bf918bf7ab629466a.jpg"  transform="matrix(0.5752 0 0 0.5752 -548.3537 -2050.6196)">
</image>
<image style="overflow:visible;" width="563" height="751" xlink:href="23ffc8d0e52b5d2bf918bf7ab629466a.jpg"  transform="matrix(0.5752 0 0 0.5752 99.3074 -2050.6196)">
</image>
<g id="VeB0fT.tif">
	
		<image style="overflow:visible;" width="800" height="600" id="Layer_0_5_" xlink:href="C7E05535F41E4276.png"  transform="matrix(1 0 0 1 613.0088 -495.0276)">
	</image>
</g>
<g id="jEaSDz.tif">
	
		<image style="overflow:visible;" width="472" height="632" id="Layer_0_6_" xlink:href="C7E05535F41E4272.png"  transform="matrix(1 0 0 1 593.4705 -535.9052)">
	</image>
</g>
<g id="KXl7aW.tif">
	
		<image style="overflow:visible;" width="100" height="150" id="Layer_0_7_" xlink:href="C7E05535F41E4271.png"  transform="matrix(2.1833 0 0 2.1833 310.2594 -258.3054)">
	</image>
</g>
<g id="r4YrgD_1_">
	
		<image style="overflow:visible;" width="308" height="164" id="r4YrgD_2_" xlink:href="C7E05535F41E428E.jpg"  transform="matrix(1.8396 0 0 1.8396 1006.9178 -144.0964)">
	</image>
</g>
<g id="ihcHxX.tif">
	
		<image style="overflow:visible;" width="794" height="390" id="Layer_0_8_" xlink:href="C7E05535F41E428E.png"  transform="matrix(1 0 0 1 528.5846 26.0428)">
	</image>
</g>
<path class="st12" d="M123.2-125.5c-3.5-7.7-5-15.3-12.3-13.5c-5,1.3,2.9,33,10.7,32.3"/>
<path class="st12" d="M120.1-116.5c0.2,1.6,0.4,7.6,1.6,9.7c9.3,17.1,22.9,42.2,45.3,40.8c20.6-1.2,40.5-35.6,40.4-53.6"/>
<path class="st12" d="M206.8-132.2c2.5-5.1,5.6-12.5,12.5-9.6c4.1,1.7-2,37.3-12.5,30.9"/>
<path class="st12" d="M114.2-142.5c-1-4.1-5-22.1,5.5-38.7c1-1.6,5.4-8.3,13.8-13.9c13.1-8.7,38.8-17.3,58.6-2.2
	c13.2,10.1,19.1,32.6,21,51.2c0.6,5.7-5.3,11.7-5.3,11.7c-3.6-0.3-4.6-14.5-6.7-21.4c-5.4-18.1-23.4-35.7-43.7-31.8
	c-13.1,2.5-34.3,18.8-36.6,35.8c-1.2,8.6-0.4,15.9,0,21"/>
<path class="st11" d="M155.5-137.9c0.1,0.9-0.7,1.9-1.5,2.3c-2.9,1.7-5.9-2.5-10.8-2.3c-6,0.2-9.4,7-11.1,5.8
	c-0.8-0.6,1.5-3.3,2.1-4.6c1.4-2.9,2.9-3.2,5.3-3.8C146.6-142.1,155.1-140.5,155.5-137.9z"/>
<path class="st11" d="M172.7-135.3c-1.3-0.6-2.2-2.2-2-3.5c0.5-3.6,9.7-5.1,16.1-4.7c6.5,0.5,8.4,2.9,8.8,3.5c0.7,1,1.6,2.8,1,3.5
	c-1.2,1.4-5.9-3.8-12.1-3.2C178.5-139.1,175.8-133.8,172.7-135.3z"/>
<path class="st12" d="M151.4-103.6c5.3,5.8,8.9,6.3,11,6c1.5-0.2,2.3-0.9,7.8-3.6c2.4-1.2,4.4-2.1,5.7-2.7"/>
<path class="st12" d="M147.9-91.1c3.5,1.3,9,2.8,15.7,2.7c10.2-0.1,17.8-3.8,21.5-5.9"/>
<path class="st12" d="M152-127.2c0.1-1.3-3.9-2.8-7.5-2.9c-5.7-0.2-11.2,3.2-10.8,4.7c0.3,1.5,7,1.2,10.2,0.8
	C144.6-124.6,151.9-125.5,152-127.2z"/>
<path class="st12" d="M172.7-128.3c0.1-1.6,5.2-2.8,9.1-3c6.1-0.4,13.3,1.5,13.3,3.4c0,2.1-9.2,4.7-17,2.6
	C177.6-125.5,172.7-126.7,172.7-128.3z"/>
<path class="st13" d="M139.1-128.4c-0.3,0.8,1.3,2.2,2.7,2.7c3.1,1.1,6.6-2.3,6.4-3.3C147.9-130.5,139.7-130,139.1-128.4z"/>
<path class="st13" d="M178.4-129.9c-0.4,1.2,2.5,3.5,5.5,3.9c3.9,0.5,7.6-2.2,7.3-3.5C190.7-131.5,179-132,178.4-129.9z"/>
<path class="st12" d="M191.5-81.8c0,0-12.1,7.3-25.7,8.3c-8.6,0.7-27-6.6-27-6.6s14.4,17.8,17.7,20.5c4.4,3.5,12.5,5.5,17.2,1.7
	C178.7-61.9,191.5-81.8,191.5-81.8z"/>
<path class="st6" d="M-48.9,66.7c0,0,1.4-26.2,0.7-37.2C-49.2,15.4-66.1,6.7-87.7,6.8c-23.4,0.1-42.5,10-42.4,25.4
	c0.1,12-0.5,31.2,0.9,34.5l2,6.7c-0.8-6.6-3.2-9.7-7.1-9.1c-3.6,0.6-0.7,22.2,2.8,25.9c1.7,1.8,4,2.1,5.4,2.4l1.1-5.1
	c0,0,0.5,13.9,0.6,24.8c0,1.8,16.8,23,26.4,25.7c1.5,0.4,14.1,0.9,16.4,0c9.2-3.4,26.9-20.3,27-23.3c0.5-13.7,0.3-24.5,0.6-28.2v6.9
	c0.8-0.2,5,0.2,6-1.2c7-9.6,8.4-24.1,3.8-26.9c-4.8-2.9-6.6,5.1-7.4,9.2"/>
<path class="st14" d="M-97.6,69.6c-0.2-1.7-4.2-2.6-6.5-2.8c-3.7-0.3-8.5,0.8-8.6,2.6c-0.2,1.8,4,4.3,8,4.2
	C-101.2,73.5-97.4,71.3-97.6,69.6z"/>
<path class="st15" d="M-130.9,62.9c0,0,9.9-9.4,10.9-15.2c1.2-6.8-4.7-9.6-4.7-16.5c-0.1-12.1,19.2-20.6,20-21
	c2.4-1,15.9-6.6,30.6-0.3c8.1,3.5,20.6,12.3,20.2,22.2c-0.3,6.6-6.1,9.6-4.9,15.7c1.9,9.1,9.9,18.8,9.9,18.8s6.8-28-2.5-46.1
	C-58.9,5.8-82.3,4.8-90.6,4.9c-7.2,0.1-27.6,3.1-36.3,16.9C-136.1,36.4-130.9,62.9-130.9,62.9z"/>
<path class="st14" d="M-81,69.6c0.2-1.7,4.2-2.6,6.5-2.8c3.7-0.3,8.5,0.8,8.6,2.6c0.2,1.8-4,4.3-8,4.2C-77.4,73.5-81.2,71.3-81,69.6
	z"/>
<path class="st7" d="M-108,67.9c-0.1,0.1-1.7,1-1.6,2.3c0.1,1.5,2.5,2.8,4.5,2.6c2-0.2,3.9-2,3.7-3.3
	C-101.7,67.8-105.6,66.5-108,67.9z"/>
<path class="st7" d="M-71.4,68.1c0.1,0.1,1.7,1,1.6,2.3c-0.1,1.5-2.5,2.8-4.5,2.6c-2-0.2-3.9-2-3.7-3.3
	C-77.8,68-73.8,66.7-71.4,68.1z"/>
<path class="st16" d="M-119,63.2c-2.8,0.4-0.3,10.6,0.7,13.2c1.5,3.7,21.9,3,23.1,1.5c2.3-2.9,2.5-13.3-0.1-14.2
	C-97.5,62.9-115.6,62.7-119,63.2z"/>
<path class="st16" d="M-58.5,63.2c2.8,0.4,0.3,10.6-0.7,13.2c-1.6,3.7-22.3,3-23.5,1.5c-2.3-2.9-2.6-13.3,0.1-14.2
	C-80.4,62.9-62,62.7-58.5,63.2z"/>
<path class="st16" d="M-93.4,67.1c0.2-0.2,1.6-1.4,4-1.5c2.9-0.1,4.7,1.4,4.8,1.5"/>
<path class="st16" d="M-129.4,65.9c2.2,0.1,6.9,0.3,9.1,0.4"/>
<path class="st16" d="M-57.5,65.1c2.2,0.1,6.9,0.3,9.1,0.4"/>
<path class="st14" d="M-97,91.7c0.5,0.4,2.6,1.7,6,1.8c3.2,0,5.5-1,6-1.4"/>
<path class="st14" d="M-110.5,107.5c4.3,2.7,7.4,2.8,9.5,2.5c2.8-0.5,2.6-0.7,6.6-1.5c1.7-0.3,4.6-1,8,0c3.1,0.9,4.2,1.1,6.8,1.9
	c1.9,0.6,4.8,0.8,9.1-1"/>
<path class="st14" d="M-95.8,118.9c1.2-1.9,3.4-1.7,5.8-1.5c2.2,0.2,3.3-0.3,4.9,1.8"/>
<g id="avdnxp.tif">
	
		<image style="overflow:visible;" width="564" height="317" id="Layer_0_9_" xlink:href="C7E05535F41E4292.png"  transform="matrix(1 0 0 1 1049.4385 -527.5035)">
	</image>
</g>
<g id="wy20yD.tif">
	
		<image style="overflow:visible;" width="564" height="423" id="Layer_0_10_" xlink:href="C7E05535F41E4291.png"  transform="matrix(1 0 0 1 981.0446 -439.4872)">
	</image>
</g>
<path class="st6" d="M-286.1,125.4l-7.5,17.8c7.7,11.3,45.8,11,54.6,2c0,0-2.9-13.4-4.6-15.8L-286.1,125.4z"/>
<path class="st7" d="M-285.9,124.1l-5.5,13.8c9.2,7.7,45.1,8.3,47.5-8.5c0,0,1.7,2.4,0,0L-285.9,124.1z"/>
<path class="st6" d="M-220,66c0,0,1.4-26.2,0.7-37.2c-0.9-14.1-17.9-22.8-39.5-22.7c-23.4,0.1-42.5,10-42.4,25.4
	c0.1,12-0.5,31.2,0.9,34.5l2,6.7c-0.8-6.6-3.2-9.7-7.1-9.1c-3.6,0.6-0.7,22.2,2.8,25.9c1.7,1.8,4,2.1,5.4,2.4l1.1-5.1
	c0,0,0.5,13.9,0.6,24.8c0,1.8,16.8,23,26.4,25.7c1.5,0.4,14.1,0.9,16.4,0c9.2-3.4,26.9-20.3,27-23.3c0.5-13.7,0.3-24.5,0.6-28.2v6.9
	c0.8-0.2,5,0.2,6-1.2c7-9.6,8.4-24.1,3.8-26.9c-4.8-2.9-6.6,5.1-7.4,9.2"/>
<path class="st14" d="M-268.6,68.9c-0.2-1.7-4.2-2.6-6.5-2.8c-3.7-0.3-8.5,0.8-8.6,2.6c-0.2,1.8,4,4.3,8,4.2
	C-272.2,72.8-268.5,70.6-268.6,68.9z"/>
<path class="st15" d="M-301.9,62.2c0,0,9.9-9.4,10.9-15.2c1.2-6.8-4.7-9.6-4.7-16.5c-0.1-12.1,19.2-20.6,20-21
	c2.4-1,15.9-6.6,30.6-0.3c8.1,3.5,20.6,12.3,20.2,22.2c-0.3,6.6-6.1,9.6-4.9,15.7C-228,56.3-220,66-220,66s6.8-28-2.5-46.1
	c-7.5-14.7-30.9-15.8-39.2-15.6c-7.2,0.1-27.6,3.1-36.3,16.9C-307.2,35.8-301.9,62.2-301.9,62.2z"/>
<path class="st14" d="M-252.1,68.9c0.2-1.7,4.2-2.6,6.5-2.8c3.7-0.3,8.5,0.8,8.6,2.6c0.2,1.8-4,4.3-8,4.2
	C-248.5,72.8-252.3,70.6-252.1,68.9z"/>
<path class="st7" d="M-279.1,67.2c-0.1,0.1-1.7,1-1.6,2.3c0.1,1.5,2.5,2.8,4.5,2.6c2-0.2,3.9-2,3.7-3.3
	C-272.7,67.1-276.7,65.8-279.1,67.2z"/>
<path class="st7" d="M-242.5,67.4c0.1,0.1,1.7,1,1.6,2.3c-0.1,1.5-2.5,2.8-4.5,2.6c-2-0.2-3.9-2-3.7-3.3
	C-248.9,67.3-244.9,66-242.5,67.4z"/>
<path class="st16" d="M-290.1,62.5c-2.8,0.4-0.3,10.6,0.7,13.2c1.5,3.7,21.9,3,23.1,1.5c2.3-2.9,2.5-13.3-0.1-14.2
	C-268.6,62.2-286.6,62-290.1,62.5z"/>
<path class="st16" d="M-229.6,62.5c2.8,0.4,0.3,10.6-0.7,13.2c-1.6,3.7-22.3,3-23.5,1.5c-2.3-2.9-2.6-13.3,0.1-14.2
	C-251.4,62.2-233.1,62-229.6,62.5z"/>
<path class="st16" d="M-264.5,66.4c0.2-0.2,1.6-1.4,4-1.5c2.9-0.1,4.7,1.4,4.8,1.5"/>
<path class="st16" d="M-300.5,65.2c2.2,0.1,6.9,0.3,9.1,0.4"/>
<path class="st16" d="M-228.6,64.4c2.2,0.1,6.9,0.3,9.1,0.4"/>
<path class="st14" d="M-268.1,91c0.5,0.4,2.6,1.7,6,1.8c3.2,0,5.5-1,6-1.4"/>
<path class="st14" d="M-281.6,106.8c4.3,2.7,7.4,2.8,9.5,2.5c2.8-0.5,2.6-0.7,6.6-1.5c1.7-0.3,4.6-1,8,0c3.1,0.9,4.2,1.1,6.8,1.9
	c1.9,0.6,4.8,0.8,9.1-1"/>
<path class="st14" d="M-266.8,118.2c1.2-1.9,3.4-1.7,5.8-1.5c2.2,0.2,3.3-0.3,4.9,1.8"/>
<path class="st3" d="M87,77.9c0,0,1.5-5.4,0.7-14.4c-0.9-11.6-17.9-35-39.5-34.9c-23.4,0-42.4,18.2-42.2,30.9
	C6,69.4,5.3,75.2,6.8,77.9l2.7,5.5c-3.4-4.8-3.9-8-7.8-7.4c-3.6,0.5-0.7,18.3,2.8,21.3c1.7,1.5,3.3,2.3,5.4,2c0,0,1.1-3.4,1.1-2.7
	c0,0.8,0.2,7.7,2.9,16.3c8.1,16.9,22.1,27.2,33.5,27.2c9.2,0,17.2-6.5,28.9-20.9c7.1-8.8,5.5-21.9,5.8-24.9v5.7c0.8-0.2,5,0.2,6-1
	c7-7.9,8.4-19.9,3.8-22.2c-4.8-2.4-6.6,4.2-7.4,7.6"/>
<path class="st4" d="M65.8,78c0.2,0.1,1.9,1.4,1.9,3.1c-0.1,2.1-2.8,3.8-5.2,3.5c-2.3-0.3-4.5-2.7-4.2-4.4
	C58.6,77.9,63,76.1,65.8,78z"/>
<path class="st17" d="M53.5,80.9c0.1-2.1,5.2-3.8,9.3-3.7c3.9,0.1,8.8,1.8,8.8,3.9c0.1,2-4.4,4.2-8.3,4.3
	C58.6,85.7,53.4,83.1,53.5,80.9z"/>
<path class="st4" d="M28.7,78c-0.2,0.1-1.9,1.4-1.9,3.1c0.1,2.1,2.8,3.8,5.2,3.5c2.3-0.3,4.5-2.7,4.2-4.4
	C35.9,77.9,31.4,76.1,28.7,78z"/>
<path class="st17" d="M40,80.9c-0.1-2.1-5.2-3.8-9.3-3.7c-3.9,0.1-8.8,1.8-8.8,3.9c-0.1,2,4.4,4.2,8.3,4.3
	C34.9,85.7,40.1,83.1,40,80.9z"/>
<path class="st4" d="M39.2,70.1c0.4,0.7,0,2.1-0.8,2.2c-2.2,0.4-5.5-1.5-10.6-1.8c-6.1-0.3-12.2,3.8-12.5,3.3
	c-0.3-0.5,6-4.8,12.5-6.1C32.6,66.9,37.5,67.5,39.2,70.1z"/>
<path class="st4" d="M52.8,70.8c-0.4,0.7,0.2,2.1,0.9,2.1c2.2,0.2,5.3-2,10.4-2.6c6.1-0.8,12.8,3.3,13,2.8c0.2-0.5-6.7-4.8-13.2-5.5
	C59.2,67,54.4,68,52.8,70.8z"/>
<path class="st4" d="M71.6,82.4c1.4-1,6.4-3.6,6.3-4.2c0-0.3-0.7,1.1-6.3-0.4C64.3,75.9,60.3,77,60.3,77c0,0,7.2,0.2,9.7,2.4
	C71.6,80.8,71.2,82.7,71.6,82.4z"/>
<path class="st4" d="M21.7,82.4c-1.4-1-6.4-3.6-6.3-4.2c0-0.3,0.7,1.1,6.3-0.4C29.1,75.9,33,77,33,77c0,0-7.2,0.2-9.7,2.4
	C21.7,80.8,22.1,82.7,21.7,82.4z"/>
<path class="st17" d="M41.3,104.2c0.5,0.4,2.6,1.7,6,1.8c3.2,0,5.5-1,6-1.4"/>
<path class="st17" d="M33.6,112.9c2.1,1.4,3.7,1.6,4.9,1.5c2.2-0.2,3.4-1.5,5.1-0.8c1.3,0.5,2.3,1.7,2.3,1.7s2-2.1,3.8-2.3
	c1.3-0.2,1.9,0.8,3.4,1.3c1.4,0.5,3.6,0.5,7-1.5"/>
<path class="st17" d="M37.9,117.8c0.6,0.6,3.1,3,7.9,3.2c4.6,0.2,8.4-2.8,9.1-3.4"/>
<path class="st17" d="M41.1,127.6c1-0.4,2.8-0.9,5.1-0.7c1.2,0.1,2.1,0.4,2.8,0.7"/>
<path class="st4" d="M8.3,80.1c1.9,0.2,1.3-22.6,16.2-33.7c8.9-6.6,27.9-8,38.5-3c19.8,9.3,22,39,22,39s14.8-37.3-17.3-55.8
	c-6.4-3.7-32.8-11.1-50.1,4.1C-1.5,47.5,6,79.9,8.3,80.1z"/>
<path class="st4" d="M71.6,23.1c0,9.1-13.3,13.9-29.4,13.9s-31.4-3.7-31.4-12.8S23.8,0,40,0S71.6,14,71.6,23.1z"/>
<path class="st3" d="M-283.7,315.7L-290,333c6.5,11,38.3,10.7,45.6,2c0,0-2.4-13.1-3.9-15.4L-283.7,315.7z"/>
<path class="st4" d="M-283.5,314.4l-4.6,13.4c7.7,7.5,37.7,8.1,39.6-8.2c0,0,1.4,2.4,0,0L-283.5,314.4z"/>
<path class="st3" d="M-222.3,262.4c0,0,1.5-5.4,0.7-14.4c-0.9-11.6-17.9-35-39.5-34.9c-23.4,0-42.4,18.2-42.2,30.9
	c0.1,9.9-0.6,15.8,0.8,18.5l2.7,5.5c-3.4-4.8-3.9-8-7.8-7.4c-3.6,0.5-0.7,18.3,2.8,21.3c1.7,1.5,3.3,2.3,5.4,2c0,0,1.1-3.4,1.1-2.7
	c0,0.8,0.2,7.7,2.9,16.3c8.1,16.9,22.1,27.2,33.5,27.2c9.2,0,17.2-6.5,28.9-20.9c7.1-8.8,5.5-21.9,5.8-24.9v5.7c0.8-0.2,5,0.2,6-1
	c7-7.9,8.4-19.9,3.8-22.2c-4.8-2.4-6.6,4.2-7.4,7.6"/>
<path class="st4" d="M-243.6,262.5c0.2,0.1,1.9,1.4,1.9,3.1c-0.1,2.1-2.8,3.8-5.2,3.5c-2.3-0.3-4.5-2.7-4.2-4.4
	C-250.8,262.4-246.3,260.6-243.6,262.5z"/>
<path class="st17" d="M-255.9,265.4c0.1-2.1,5.2-3.8,9.3-3.7c3.9,0.1,8.8,1.8,8.8,3.9c0.1,2-4.4,4.2-8.3,4.3
	C-250.8,270.2-256,267.6-255.9,265.4z"/>
<path class="st4" d="M-280.7,262.5c-0.2,0.1-1.9,1.4-1.9,3.1c0.1,2.1,2.8,3.8,5.2,3.5c2.3-0.3,4.5-2.7,4.2-4.4
	C-273.4,262.4-277.9,260.6-280.7,262.5z"/>
<path class="st17" d="M-269.4,265.4c-0.1-2.1-5.2-3.8-9.3-3.7c-3.9,0.1-8.8,1.8-8.8,3.9c-0.1,2,4.4,4.2,8.3,4.3
	C-274.5,270.2-269.3,267.6-269.4,265.4z"/>
<path class="st4" d="M-270.1,254.6c0.4,0.7,0,2.1-0.8,2.2c-2.2,0.4-5.5-1.5-10.6-1.8c-6.1-0.3-12.2,3.8-12.5,3.3
	c-0.3-0.5,6-4.8,12.5-6.1C-276.8,251.4-271.9,252-270.1,254.6z"/>
<path class="st4" d="M-256.5,255.3c-0.4,0.7,0.2,2.1,0.9,2.1c2.2,0.2,5.3-2,10.4-2.6c6.1-0.8,12.8,3.3,13,2.8
	c0.2-0.5-6.7-4.8-13.2-5.5C-250.1,251.5-255,252.5-256.5,255.3z"/>
<path class="st4" d="M-237.8,266.9c1.4-1,6.4-3.6,6.3-4.2c0-0.3-0.7,1.1-6.3-0.4c-7.4-1.9-11.3-0.8-11.3-0.8c0,0,7.2,0.2,9.7,2.4
	C-237.8,265.3-238.2,267.2-237.8,266.9z"/>
<path class="st4" d="M-287.6,266.9c-1.4-1-6.4-3.6-6.3-4.2c0-0.3,0.7,1.1,6.3-0.4c7.4-1.9,11.3-0.8,11.3-0.8c0,0-7.2,0.2-9.7,2.4
	C-287.6,265.3-287.2,267.2-287.6,266.9z"/>
<path class="st17" d="M-268.1,288.7c0.5,0.4,2.6,1.7,6,1.8c3.2,0,5.5-1,6-1.4"/>
<path class="st17" d="M-275.8,297.4c2.1,1.4,3.7,1.6,4.9,1.5c2.2-0.2,3.4-1.5,5.1-0.8c1.3,0.5,2.3,1.7,2.3,1.7s2-2.1,3.8-2.3
	c1.3-0.2,1.9,0.8,3.4,1.3c1.4,0.5,3.6,0.5,7-1.5"/>
<path class="st17" d="M-271.4,302.3c0.6,0.6,3.1,3,7.9,3.2c4.6,0.2,8.4-2.8,9.1-3.4"/>
<path class="st17" d="M-268.3,312.1c1-0.4,2.8-0.9,5.1-0.7c1.2,0.1,2.1,0.4,2.8,0.7"/>
<path class="st4" d="M-301.1,264.6c1.9,0.2,1.3-22.6,16.2-33.7c8.9-6.6,27.9-8,38.5-3c19.8,9.3,22,39,22,39s14.8-37.3-17.3-55.8
	c-6.4-3.7-32.8-11.1-50.1,4.1C-310.9,232-303.3,264.4-301.1,264.6z"/>
<path class="st4" d="M-237.8,207.6c0,9.1-13.3,13.9-29.4,13.9s-31.4-3.7-31.4-12.8c0-9.1,13.1-24.2,29.2-24.2
	C-253.2,184.5-237.8,198.5-237.8,207.6z"/>
<path class="st18" d="M177.9,172.8l-7.2,19.3c7.4,12.2,43.9,11.9,52.4,2.2c0,0-2.8-14.5-4.4-17.1L177.9,172.8z"/>
<path class="st19" d="M179.2,171.4l-5.3,11.4c8.8,6.4,43.2,6.9,45.5-7c0,0,1.6,2,0,0L179.2,171.4z"/>
<path class="st18" d="M242.1,120.9c0,0,1.4-22.6,0.7-32.1c-0.9-12.1-17.9-19.7-39.5-19.6c-23.4,0-42.5,8.6-42.4,22
	c0.1,10.4-0.5,26.9,0.9,29.8l2,5.8c-0.8-5.7-3.2-8.4-7.1-7.8c-3.6,0.5-0.7,19.1,2.8,22.3c1.7,1.5,4,1.8,5.4,2.1l1.1-4.4
	c0,0,0.1,4.8,0.5,14.2c0.3,6.3,16.6,28.3,26.5,29.4c5,0.6,12.9,0.6,16.4,0c9.6-1.6,27.3-21.6,27.3-30.3c0-11.8,0-10.9,0.3-14.1v5.9
	c0.8-0.2,5,0.2,6-1.1c7-8.3,8.4-20.8,3.8-23.2c-4.8-2.5-6.6,4.4-7.4,7.9"/>
<path class="st20" d="M193.5,118.4c-0.2-1.7-4.2-2.6-6.5-2.8c-3.7-0.3-8.5,0.8-8.6,2.6c-0.2,1.8,4,4.3,8,4.2
	C189.9,122.3,193.6,120.1,193.5,118.4z"/>
<path class="st20" d="M210,118.4c0.2-1.7,4.2-2.6,6.5-2.8c3.7-0.3,8.5,0.8,8.6,2.6c0.2,1.8-4,4.3-8,4.2
	C213.6,122.3,209.8,120.1,210,118.4z"/>
<path class="st21" d="M183,116.7c-0.1,0.1-1.7,1-1.6,2.3c0.1,1.5,2.5,2.8,4.5,2.6c2-0.2,3.9-2,3.7-3.3
	C189.4,116.7,185.4,115.3,183,116.7z"/>
<path class="st21" d="M219.6,116.9c0.1,0.1,1.7,1,1.6,2.3c-0.1,1.5-2.5,2.8-4.5,2.6c-2-0.2-3.9-2-3.7-3.3
	C213.3,116.8,217.2,115.5,219.6,116.9z"/>
<path class="st20" d="M195.3,167.7c1.2-1.9,3.4-1.7,5.8-1.5c2.2,0.2,3.3-0.3,4.9,1.8"/>
<path class="st19" d="M194.4,109.9c0.1,0.9-0.7,1.7-1.4,2.1c-2.7,1.5-5.3-2.7-9.8-2.8c-5.5-0.1-8.9,6.1-10.4,4.9
	c-0.8-0.6,1.5-3,2.1-4.2c1.4-2.7,2.7-2.9,5-3.3C186.4,105.5,194.2,107.4,194.4,109.9z"/>
<path class="st19" d="M210.1,112.3c-1.1-0.6-1.9-2.2-1.7-3.4c0.6-3.3,9.1-4.3,14.9-3.5c5.9,0.8,7.5,3.2,7.9,3.8
	c0.6,1,1.4,2.7,0.8,3.4c-1.2,1.3-5.3-3.9-11-3.7C215.6,109.1,212.8,113.9,210.1,112.3z"/>
<path class="st20" d="M193.3,140.4c4.1,5,6.8,5.5,8.3,5.3c1.1-0.1,1.7-0.7,5.7-2.8c1.7-0.9,3.2-1.6,4.2-2.1"/>
<path class="st20" d="M183.8,157.2c3.5,1.3,9,2.8,15.7,2.7c10.2-0.1,17.8-3.8,21.5-5.9"/>
<path class="st19" d="M163.9,126.7c0,0-10-22.3,11.9-36.3c7.6-4.9,15.5-12.3,26.7-12.7c12.5-0.5,18,8.1,26,12
	c21.3,10.4,11.2,38.1,11.2,38.1s11.2-23.3,7.1-37.6c-5.3-18.1-29.7-24-45.9-24.7c-4.2-0.2-28.4,2.1-38.6,20.2
	C152.9,101.9,163.9,126.7,163.9,126.7z"/>
<path class="st19" d="M192.1,145.1c-5.3-0.3-11.2,3.5-11,6.1c0.3,3.4,10.5,5.3,17.1,5.6c11,0.5,23-3,23-6.1c0-2.2-5.8-4.7-10.7-4.9
	c-4.9-0.1-6.7,2.1-11.7,1.3C195.2,146.6,195,145.3,192.1,145.1z"/>
<path class="st22" d="M37.8,336.8c-0.2-1.7-4.2-2.6-6.5-2.8c-3.7-0.3-8.5,0.8-8.6,2.6c-0.2,1.8,4,4.3,8,4.2
	C34.2,340.7,38,338.5,37.8,336.8z"/>
<path class="st22" d="M54.3,336.8c0.2-1.7,4.2-2.6,6.5-2.8c3.7-0.3,8.5,0.8,8.6,2.6c0.2,1.8-4,4.3-8,4.2
	C57.9,340.7,54.2,338.5,54.3,336.8z"/>
<path class="st0" d="M27.3,335.1c-0.1,0.1-1.7,1-1.6,2.3c0.1,1.5,2.5,2.8,4.5,2.6c2-0.2,3.9-2,3.7-3.3
	C33.7,335,29.8,333.7,27.3,335.1z"/>
<path class="st0" d="M63.9,335.3c0.1,0.1,1.7,1,1.6,2.3c-0.1,1.5-2.5,2.8-4.5,2.6c-2-0.2-3.9-2-3.7-3.3
	C57.6,335.2,61.5,333.9,63.9,335.3z"/>
<path class="st22" d="M16.4,330.4c-2.8,0.4-1.7,10.4,3.7,13.2c8.4,4.3,18.9,3,20.1,1.5c2.3-2.9,2.5-13.3-0.1-14.2
	C37.9,330.1,19.8,329.9,16.4,330.4z"/>
<path class="st22" d="M42,334.3c0.2-0.2,1.6-1.4,4-1.5c2.9-0.1,4.7,1.4,4.8,1.5"/>
<path class="st22" d="M6,333.1c2.2,0.1,6.9,0.3,9.1,0.4"/>
<path class="st22" d="M77.9,332.3c2.2,0.1,6.9,0.3,9.1,0.4"/>
<path class="st22" d="M38.4,358.9c0.5,0.4,2.6,1.7,6,1.8c3.2,0,5.5-1,6-1.4"/>
<path class="st22" d="M39.6,386.2c1.2-1.2,3.4-1.1,5.8-0.9c2.2,0.1,3.3-0.2,4.9,1.1"/>
<path class="st22" d="M76.3,330.3c2.8,0.4,1.7,10.4-3.7,13.2c-8.4,4.3-18.9,3-20.1,1.5c-2.3-2.9-2.5-13.3,0.1-14.2
	C54.8,330,72.9,329.8,76.3,330.3z"/>
<path class="st22" d="M28.9,372.1c2.5,1.6,4.4,1.6,5.6,1.4c2.6-0.5,3.9-2.6,5.9-2c1.1,0.3,1.2,1.1,2.3,1.3c1.4,0.2,1.9-1.3,3.3-1.4
	c1.6-0.2,2.3,1.5,4.1,2.2c1.3,0.5,3.4,0.6,6.8-1.4"/>
<path class="st1" d="M38.4,377.3c0.6,0.5,2.1,1.3,4.2,1.5c2.4,0.2,4.2-0.6,4.9-1"/>
</svg>
